<?xml version="1.0" encoding="utf-8"?>
<!-- Generator: Adobe Illustrator 23.1.0, SVG Export Plug-In . SVG Version: 6.00 Build 0)  -->
<svg version="1.1" id="Layer_1" xmlns="http://www.w3.org/2000/svg" xmlns:xlink="http://www.w3.org/1999/xlink" x="0px" y="0px"
	 viewBox="0 0 100 100" style="enable-background:new 0 0 100 100;" xml:space="preserve">
<style type="text/css">
	.st0{clip-path:url(#SVGID_2_);fill:#1D1E1B;}
	.st1{clip-path:url(#SVGID_4_);}
	.st2{fill:#020203;}
	.st3{fill:none;stroke:#020203;stroke-width:8.298;stroke-linecap:round;stroke-linejoin:round;}
	.st4{fill-rule:evenodd;clip-rule:evenodd;fill:#020203;}
</style>
<g>
	<defs>
		<rect id="SVGID_1_" x="5" y="5" width="90" height="90"/>
	</defs>
	<clipPath id="SVGID_2_">
		<use xlink:href="#SVGID_1_"  style="overflow:visible;"/>
	</clipPath>
	<path class="st0" d="M76.9,72c-1.4-1.4-3.5-1.4-4.9,0c-1.4,1.4-1.4,3.5,0,4.9l4.9,4.9c1.4,1.4,3.5,1.4,4.9,0c1.4-1.4,1.4-3.5,0-4.9
		L76.9,72z M23.1,28c1.4,1.4,3.5,1.4,4.9,0c1.4-1.4,1.4-3.5,0-4.9l-4.9-4.9c-1.4-1.4-3.5-1.4-4.9,0c-1.4,1.4-1.4,3.5,0,4.9L23.1,28z
		 M91.5,46.5h-6.9c-1.9,0-3.5,1.6-3.5,3.5c0,1.9,1.6,3.5,3.5,3.5h6.9c1.9,0,3.5-1.6,3.5-3.5C95,48.1,93.4,46.5,91.5,46.5 M18.8,50
		c0-1.9-1.6-3.5-3.5-3.5H8.5C6.6,46.5,5,48.1,5,50c0,1.9,1.6,3.5,3.5,3.5h6.9C17.3,53.5,18.8,51.9,18.8,50 M23.1,72l-4.9,4.9
		c-1.4,1.4-1.4,3.5,0,4.9c1.4,1.4,3.5,1.4,4.9,0l4.9-4.9c1.4-1.4,1.4-3.5,0-4.9C26.6,70.7,24.4,70.7,23.1,72 M76.9,28l4.9-4.9
		c1.4-1.4,1.4-3.5,0-4.9c-1.4-1.4-3.5-1.4-4.9,0L72,23.1c-1.4,1.4-1.4,3.5,0,4.9S75.6,29.3,76.9,28 M50,81.2c-1.9,0-3.5,1.6-3.5,3.5
		v6.9c0,1.9,1.6,3.5,3.5,3.5c1.9,0,3.5-1.6,3.5-3.5v-6.9C53.5,82.7,51.9,81.2,50,81.2 M50,18.8c1.9,0,3.5-1.6,3.5-3.5V8.5
		C53.5,6.6,51.9,5,50,5c-1.9,0-3.5,1.6-3.5,3.5v6.9C46.5,17.3,48.1,18.8,50,18.8 M50,66.3c-9,0-16.3-7.3-16.3-16.3
		c0-9,7.3-16.3,16.3-16.3S66.3,41,66.3,50C66.3,59,59,66.3,50,66.3 M50,25.8c-13.4,0-24.2,10.9-24.2,24.2S36.6,74.2,50,74.2
		S74.2,63.4,74.2,50S63.4,25.8,50,25.8"/>
</g>
</svg>
