<?xml version="1.0" encoding="utf-8"?>
<!-- Generator: Adobe Illustrator 23.1.0, SVG Export Plug-In . SVG Version: 6.00 Build 0)  -->
<svg version="1.1" id="Layer_1" xmlns="http://www.w3.org/2000/svg" x="0px" y="0px"
     viewBox="0 0 100 100" style="enable-background:new 0 0 100 100;" xml:space="preserve">
<style type="text/css">
	.st0{clip-path:url(#SVGID_2_);fill:#1D1E1B;}
	.st1{clip-path:url(#SVGID_4_);}
	.st2{fill:#020203;}
	.st3{fill:none;stroke:#020203;stroke-width:8.298;stroke-linecap:round;stroke-linejoin:round;}
	.st4{fill-rule:evenodd;clip-rule:evenodd;fill:#020203;}
</style>
<g>
	<path class="st2" d="M50,5C25.3,5,5,25.3,5,50s20.3,45,45,45s45-20.3,45-45S74.8,5,50,5z M50,87.5c-20.6,0-37.5-16.9-37.5-37.5
		c0-20.6,16.9-37.5,37.5-37.5S87.5,29.4,87.5,50C87.5,70.6,70.6,87.5,50,87.5z"/>
	<path class="st2" d="M80,46.2c-2.1,0-3.7,1.7-3.7,3.8c0,2.1,1.7,3.7,3.7,3.7c2.1,0,3.8-1.7,3.8-3.7C83.8,47.9,82.1,46.2,80,46.2z"
		/>
	<path class="st2" d="M20,46.2c-2.1,0-3.8,1.7-3.8,3.8c0,2.1,1.7,3.7,3.8,3.7c2.1,0,3.7-1.7,3.7-3.7C23.7,47.9,22.1,46.2,20,46.2z"
		/>
	<circle class="st2" cx="71.4" cy="71.4" r="3.7"/>
	<circle class="st2" cx="28.6" cy="28.6" r="3.7"/>
	<circle class="st2" cx="28.6" cy="71.4" r="3.7"/>
	<circle class="st2" cx="71.4" cy="28.6" r="3.7"/>
	<path class="st2" d="M53.8,43.5V20c0-2.3-1.5-3.7-3.8-3.7s-3.8,1.5-3.8,3.7v23.5c-2.2,1.3-3.7,3.7-3.7,6.5c0,4.1,3.4,7.5,7.5,7.5
		s7.5-3.4,7.5-7.5C57.5,47.2,56,44.8,53.8,43.5z"/>
</g>
</svg>
