<?xml version="1.0" encoding="utf-8"?>
<!-- Generator: Adobe Illustrator 23.1.0, SVG Export Plug-In . SVG Version: 6.00 Build 0)  -->
<svg version="1.1" id="Layer_1" xmlns="http://www.w3.org/2000/svg" xmlns:xlink="http://www.w3.org/1999/xlink" x="0px" y="0px"
	 viewBox="0 0 100 100" style="enable-background:new 0 0 100 100;" xml:space="preserve">
<style type="text/css">
	.st0{clip-path:url(#SVGID_2_);fill:#1D1E1B;}
	.st1{clip-path:url(#SVGID_4_);}
	.st2{fill:#020203;}
	.st3{fill:none;stroke:#020203;stroke-width:8.298;stroke-linecap:round;stroke-linejoin:round;}
	.st4{fill-rule:evenodd;clip-rule:evenodd;fill:#020203;}
</style>
<g>
	<g>
		<defs>
			<rect id="SVGID_3_" x="27.5" y="5.1" width="45" height="90"/>
		</defs>
		<clipPath id="SVGID_2_">
			<use xlink:href="#SVGID_3_"  style="overflow:visible;"/>
		</clipPath>
		<path style="clip-path:url(#SVGID_2_);" d="M50,87.6c-8.3,0-15-6.7-15-15c0-5.6,3-10.5,7.5-12.7V20.1c0-4.1,3.4-7.5,7.5-7.5
			s7.5,3.4,7.5,7.5v39.8C62,62.5,65,67.4,65,72.6C65,80.9,58.2,87.6,50,87.6 M65,56.1v-36c0-8.2-6.8-15-15-15c-8.3,0-15,6.7-15,15
			v36c-4.5,4.1-7.5,10.1-7.5,16.5C27.5,85,37.6,95.1,50,95.1c12.4,0,22.5-10.1,22.5-22.5C72.5,65.9,69.5,60.2,65,56.1"/>
		<path style="clip-path:url(#SVGID_2_);" d="M53.1,63.9V47.7h-6.3v16.2c-3.7,1.2-6.2,4.7-6.2,8.7c0,5.3,4.1,9.4,9.4,9.4
			s9.4-4.1,9.4-9.4C59.3,68.6,56.8,65.2,53.1,63.9"/>
	</g>
</g>
</svg>
