<?xml version="1.0" encoding="utf-8"?>
<!-- Generator: Adobe Illustrator 23.1.0, SVG Export Plug-In . SVG Version: 6.00 Build 0)  -->
<svg version="1.1" id="Layer_1" xmlns="http://www.w3.org/2000/svg" x="0px" y="0px"
     viewBox="0 0 100 100" style="enable-background:new 0 0 100 100;" xml:space="preserve">
<style type="text/css">
	.st0{clip-path:url(#SVGID_2_);fill:#1D1E1B;}
	.st1{clip-path:url(#SVGID_4_);}
	.st2{fill:#020203;}
	.st3{fill:none;stroke:#020203;stroke-width:8.298;stroke-linecap:round;stroke-linejoin:round;}
	.st4{fill-rule:evenodd;clip-rule:evenodd;fill:#020203;}
</style>
<g>
	<path class="st2" d="M77,28.9c-4.7,0-9.2,2.2-12.2,5.8c-2.2,2.2-3.3,3.2-5.9,3.2s-3.6-1-5.8-3.2C47.6,28,37.7,26.9,31,32.4
		c-0.9,0.7-1.6,1.5-2.3,2.3c-2.2,2.2-3.3,3.2-5.8,3.2s-3.6-1-5.8-3.2c-3-3.6-7.5-5.8-12.2-5.8v9c2.5,0,3.6,1,5.8,3.2
		c3,3.6,7.5,5.8,12.2,5.8c4.7-0.1,9.2-2.2,12.2-5.8c2.2-2.2,3.3-3.2,5.9-3.2c2.6,0,3.6,1,5.8,3.2c5.4,6.8,15.3,7.8,22.1,2.4
		c0.9-0.7,1.7-1.5,2.4-2.4c2.2-2.2,3.3-3.2,5.9-3.2s3.6,1,5.9,3.2c3,3.6,7.4,5.7,12.1,5.8v-9c-2.5,0-3.6-1-5.9-3.2
		C86.2,31.1,81.7,28.9,77,28.9z"/>
	<path class="st2" d="M77,53c-4.7,0-9.2,2.2-12.2,5.8C62.6,61,61.5,62,58.9,62s-3.6-1-5.8-3.2C47.6,52,37.7,51,31,56.5
		c-0.9,0.7-1.6,1.5-2.3,2.3C26.5,61,25.4,62,22.9,62s-3.6-1-5.8-3.2C14,55.1,9.5,53,4.8,53v9c2.5,0,3.6,1,5.8,3.2
		c3,3.6,7.5,5.8,12.2,5.8C27.6,71,32,68.8,35,65.2c2.2-2.2,3.3-3.2,5.8-3.2s3.6,1,5.8,3.2c5.4,6.8,15.3,7.8,22.1,2.4
		c0.9-0.7,1.7-1.5,2.4-2.4C73.4,63,74.4,62,77,62c2.6,0,3.6,1,5.9,3.2c3,3.6,7.5,5.8,12.2,5.8v-9c-2.5,0-3.6-1-5.9-3.2
		C86.2,55.1,81.7,53,77,53z"/>
	<path class="st2" d="M77,77c-4.7,0-9.2,2.2-12.2,5.8c-2.2,2.2-3.3,3.2-5.9,3.2s-3.6-1-5.8-3.2c-5.5-6.7-15.3-7.8-22.1-2.3
		c-0.9,0.7-1.6,1.5-2.3,2.3c-2.2,2.2-3.3,3.2-5.8,3.2s-3.6-1-5.8-3.2c-3-3.6-7.5-5.8-12.2-5.8v9c2.5,0,3.6,1,5.8,3.2
		c3,3.6,7.5,5.8,12.2,5.8C27.6,95,32,92.9,35,89.3c2.2-2.2,3.3-3.2,5.8-3.2s3.6,1,5.8,3.2c5.4,6.8,15.3,7.8,22.1,2.4
		c0.9-0.7,1.7-1.5,2.4-2.4c2.2-2.2,3.3-3.2,5.9-3.2c2.6,0,3.6,1,5.9,3.2c3,3.6,7.5,5.8,12.2,5.8v-9c-2.5,0-3.6-1-5.9-3.2
		C86.2,79.2,81.7,77.1,77,77z"/>
	<rect x="4.8" y="5.1" class="st2" width="90.4" height="11.3"/>
</g>
</svg>
