<?xml version="1.0" encoding="utf-8"?>
<!-- Generator: Adobe Illustrator 23.1.0, SVG Export Plug-In . SVG Version: 6.00 Build 0)  -->
<svg version="1.1" id="Layer_1" xmlns="http://www.w3.org/2000/svg" x="0px" y="0px"
     viewBox="0 0 100 100" style="enable-background:new 0 0 100 100;" xml:space="preserve">
<style type="text/css">
	.st0{clip-path:url(#SVGID_2_);fill:#1D1E1B;}
	.st1{clip-path:url(#SVGID_4_);}
	.st2{fill:#020203;}
	.st3{fill:none;stroke:#020203;stroke-width:8.298;stroke-linecap:round;stroke-linejoin:round;}
	.st4{fill-rule:evenodd;clip-rule:evenodd;fill:#020203;}
</style>
<g>
	<path class="st2" d="M49.8,94c-3.9,0-7.7-1.5-10.6-4.4c-1.9-2-1.9-5.1,0-7.1c2-1.9,5.1-1.9,7.1,0c1.9,2,5.1,2,7.1,0
		c0.9-0.9,1.5-2.2,1.5-3.5c0-1.3-0.5-2.6-1.5-3.5c-0.9-0.9-2.2-1.5-3.5-1.5c0,0,0,0,0,0H10.2c-2.8,0-5-2.2-5-5s2.2-5,5-5h39.5
		c0,0,0,0,0.1,0c3.9,0,7.8,1.6,10.6,4.4c2.8,2.8,4.4,6.6,4.4,10.6c0,4-1.6,7.8-4.4,10.6C57.5,92.5,53.6,94,49.8,94z M10.2,54
		c-2.8,0-5-2.2-5-5c0-2.8,2.2-5,5-5h67c2,0,3.9-0.8,5.3-2.2c1.4-1.4,2.2-3.3,2.2-5.3s-0.8-3.9-2.2-5.3c-2.9-2.9-7.7-2.9-10.6,0
		c-2,2-5.1,1.9-7.1,0c-1.9-2-1.9-5.1,0-7.1c6.8-6.8,17.9-6.8,24.8,0c3.3,3.3,5.1,7.7,5.1,12.4c0,4.7-1.8,9.1-5.1,12.4
		c-3.3,3.3-7.7,5.1-12.3,5.1H10.2z M34.8,34C34.8,34,34.8,34,34.8,34H10.2c-2.8,0-5-2.2-5-5s2.2-5,5-5h24.5c0,0,0,0,0,0
		c1.3,0,2.6-0.5,3.6-1.5c1.9-2,1.9-5.1,0-7.1c-0.9-0.9-2.2-1.5-3.5-1.5c0,0,0,0,0,0c-1.3,0-2.6,0.5-3.5,1.5c-1.9,2-5.1,2-7.1,0
		c-2-1.9-2-5.1,0-7.1C27,5.6,30.8,4,34.8,4c0,0,0,0,0,0c4,0,7.7,1.5,10.6,4.4c5.9,5.8,5.9,15.3,0.1,21.2C42.7,32.4,38.8,34,34.8,34z
		"/>
</g>
</svg>
